<svg version="1.1" id="Layer_1" xmlns="http://www.w3.org/2000/svg" xmlns:xlink="http://www.w3.org/1999/xlink" x="0px" y="0px"
	 width="100%" viewBox="0 0 200 200" enable-background="new 0 0 200 200" xml:space="preserve">
<path fill="#B0CE55" opacity="1.000000" stroke="none"
	d="
M181.193436,34.975929 
	C180.408478,25.491713 172.795914,20.610798 164.636658,20.054775 
	C155.906403,19.459845 147.144104,19.108934 138.394821,19.089754 
	C130.978607,19.073494 123.563858,19.812819 116.143173,19.973972 
	C109.847664,20.110691 108.976837,19.101259 108.969574,12.920585 
	C108.965263,9.258762 108.969795,5.596930 108.985176,1.467551 
	C131.020889,1.000000 153.041794,1.000000 175.240158,1.298249 
	C175.878448,2.042796 176.261368,2.662309 176.811615,2.909692 
	C186.832123,7.414819 194.624969,14.152933 198.912704,24.535791 
	C199.186264,25.198212 200.285095,25.519838 201.000000,26.000000 
	C201.000000,48.020893 201.000000,70.041786 201.000000,92.531342 
	C196.615509,93.002106 192.227936,93.097954 187.848206,92.954689 
	C186.345581,92.905540 184.862534,92.258247 183.223755,91.041931 
	C183.047241,73.488388 183.068832,56.776646 182.909714,40.066624 
	C182.893494,38.364429 181.791550,36.672581 181.193436,34.975929 
z"/>
<path fill="#676767" opacity="1.000000" stroke="none"
	d="
M109.468658,201.000000 
	C109.422470,194.987976 109.844940,188.975967 111.080902,182.989883 
	C123.253036,183.010056 134.611679,183.004303 145.970306,182.998535 
	C153.735306,182.289551 161.546494,181.895630 169.249969,180.766785 
	C174.894760,179.939636 180.844940,171.947601 181.071259,166.791168 
	C181.891617,148.099350 182.922592,129.416794 183.911575,109.994926 
	C188.899414,109.994926 194.481476,109.994926 200.531769,109.997467 
	C201.000000,121.354225 201.000000,132.708450 200.698883,144.793060 
	C200.598526,148.348953 200.799271,151.174484 201.000000,154.000000 
	C201.000000,160.687637 201.000000,167.375290 200.631287,174.438293 
	C199.893890,175.126480 199.325684,175.368301 199.185440,175.762405 
	C194.982147,187.574692 187.477081,195.926529 174.975784,199.179016 
	C174.523224,199.296753 174.319626,200.371353 174.000000,201.000000 
	C168.645065,201.000000 163.290146,201.000000 157.278091,200.719849 
	C155.413986,200.626465 154.206985,200.813232 153.000000,201.000000 
	C138.645767,201.000000 124.291542,201.000000 109.468658,201.000000 
z"/>
<path fill="#666666" opacity="1.000000" stroke="none"
	d="
M19.834362,90.014038 
	C18.669502,91.005043 17.549232,92.779579 16.331913,92.848862 
	C11.544265,93.121338 6.726074,92.857185 1.459610,92.896118 
	C1.000000,89.307091 1.000000,85.614182 1.308313,81.215683 
	C1.411084,78.006729 1.205542,75.503365 1.000000,73.000000 
	C1.000000,58.979103 1.000000,44.958210 1.290446,30.639927 
	C1.900347,30.043955 2.219802,29.745369 2.539257,29.446785 
	C2.026172,29.297857 1.513086,29.148928 1.000000,29.000000 
	C1.000000,28.555555 1.000000,28.111111 1.368707,27.419353 
	C2.582530,25.868689 3.485185,24.598547 4.260684,23.255009 
	C5.835189,20.527212 7.340940,17.759727 9.207582,14.925588 
	C12.324035,11.930645 15.107935,9.018718 18.259789,6.038398 
	C21.751829,4.313337 24.875916,2.656668 28.000000,1.000000 
	C49.354229,1.000000 70.708458,1.000000 92.531342,1.000000 
	C92.997993,4.491901 92.994911,7.983801 92.994179,11.475702 
	C92.992393,20.015461 92.990486,20.140810 84.149788,19.975784 
	C77.550491,19.852596 70.946129,18.929523 64.365669,19.118105 
	C54.247391,19.408073 44.135086,20.199362 34.044979,21.065920 
	C28.278152,21.561188 21.554777,29.038479 20.985643,34.870029 
	C20.748165,37.303288 20.297941,39.715778 19.513184,42.683128 
	C18.727686,43.922985 18.067663,44.615990 18.064384,45.312088 
	C17.998932,59.204952 17.971165,73.098480 18.083202,86.990692 
	C18.091370,88.003113 19.224342,89.006470 19.834362,90.014038 
z"/>
<path fill="#666666" opacity="1.000000" stroke="none" 
	d="
M91.013412,183.000504 
	C91.673332,184.533310 92.800766,186.035782 92.902512,187.604782 
	C93.170822,191.742798 92.993912,195.909653 92.997139,200.532516 
	C86.645599,201.000000 80.291206,201.000000 73.169800,200.708557 
	C67.626640,200.284515 62.847652,199.989044 58.075226,200.071793 
	C54.379230,200.135880 50.691437,200.673096 47.000000,201.000000 
	C41.311958,201.000000 35.623920,201.000000 29.565857,200.615295 
	C28.872391,199.881058 28.599428,199.298340 28.218185,199.215805 
	C15.662220,196.497574 7.541090,189.037933 3.750802,176.736008 
	C3.414672,175.645050 1.943828,174.903717 1.000000,174.000000 
	C1.000000,161.979111 1.000000,149.958206 1.342247,137.245361 
	C1.735560,134.046494 1.786626,131.539581 1.898618,128.591370 
	C1.929981,125.780586 1.900419,123.411102 1.921964,120.586411 
	C1.951256,116.818443 1.929440,113.505692 1.907624,110.192932 
	C6.313401,110.129967 10.745399,109.769737 15.111649,110.154877 
	C16.785120,110.302505 18.308458,112.152100 19.493755,113.726562 
	C19.091278,118.842552 19.095253,123.458099 19.066044,128.536575 
	C19.068676,138.631210 19.104494,148.262939 18.880325,158.092407 
	C19.026346,159.198013 19.432358,160.105835 19.838366,161.013672 
	C21.344734,165.903564 21.839291,171.475021 24.575218,175.536682 
	C29.734245,183.195572 38.416927,182.860428 46.638931,182.695816 
	C49.509727,182.638367 52.382874,182.698242 56.106201,182.848877 
	C68.309441,182.995667 79.661430,182.998077 91.013412,183.000504 
z"/>
<path fill="#B0CE51" opacity="1.000000" stroke="none"
	d="
M171.333374,79.246506 
	C159.726593,100.786934 130.446960,102.808594 114.445763,86.904343 
	C98.033737,70.591743 101.034882,42.180660 122.367195,30.144915 
	C141.934280,19.105118 163.240067,28.271677 172.473480,45.204025 
	C178.410965,56.092232 177.456467,67.846413 171.333374,79.246506 
z"/>
<path fill="#676767" opacity="1.000000" stroke="none"
	d="
M63.159393,175.871216 
	C43.379929,176.129105 28.572170,162.572418 26.387405,145.425797 
	C22.933157,118.315971 44.774914,97.619835 71.835991,105.373299 
	C100.205772,113.501732 105.906181,147.880829 87.912537,164.838547 
	C80.801453,171.540222 73.008568,175.101746 63.159393,175.871216 
z"/>
<path fill="#676767" opacity="1.000000" stroke="none"
	d="
M40.372086,32.249405 
	C53.701366,23.291801 67.292297,23.030674 80.483780,30.890953 
	C102.772438,44.171879 104.411865,75.231468 83.133057,90.672997 
	C66.660187,102.626938 40.760086,97.026932 31.679670,81.222908 
	C24.461174,68.659462 24.205677,55.401390 30.978828,42.561520 
	C33.029427,38.674210 36.985729,35.792179 40.372086,32.249405 
z"/>
<path fill="#676767" opacity="1.000000" stroke="none"
	d="
M156.267670,172.406433 
	C138.440506,180.918411 115.036346,173.680161 107.583275,155.023331 
	C102.706673,142.816010 102.692558,130.444748 111.303047,118.681267 
	C116.305740,111.846687 122.490814,107.414474 129.950195,105.227798 
	C139.889999,102.314003 150.101074,103.759834 158.839218,109.391518 
	C170.552383,116.940605 176.660187,128.105301 175.934052,142.281006 
	C175.239731,155.835770 168.755569,165.921539 156.267670,172.406433 
z"/>
</svg>